<?xml version="1.0" encoding="UTF-8"?>
<svg id="Calque_1" data-name="Calque 1" xmlns="http://www.w3.org/2000/svg" viewBox="0 0 269.65 238.67">
  <defs>
    <style>
      .cls-1, .cls-2 {
        fill: #0056a0;
      }

      .cls-3 {
        fill: #e73337;
      }

      .cls-4 {
        fill: #fff;
      }

      .cls-4, .cls-5, .cls-2 {
        fill-rule: evenodd;
      }

      .cls-5 {
        fill: #0056a4;
      }
    </style>
  </defs>
  <rect class="cls-3" x="2.61" width="162.33" height="169.67"/>
  <path class="cls-4" d="M165.16,36.02c-.04-1.44-.09-2.87-.13-4.31-1.46,.12-2.82,.67-4.04,1.08-.54,.09-1.08,.18-1.62,.27-1.68,.56-3.71,1.05-5.39,1.62-1.09,.37-2.01,.31-3.1,.67-4.15,1.39-8.77,2.24-12.92,3.64-1.08,.36-2.01,.31-3.1,.67-2.83,.95-6.06,1.61-8.89,2.56-.54,.09-1.08,.18-1.62,.27-2.83,.95-6.06,1.61-8.89,2.56-.54,.09-1.08,.18-1.62,.27-6.11,2.05-12.76,3.48-18.98,5.25-1.84,.13-3.68,.27-5.52,.4-3.36,.82-7.41,.25-10.77,1.08-1.01,.25-2.2,.05-3.1,.27-1.57,.09-3.14,.18-4.71,.27-.89,.21-2.22,.19-3.1,.4h-1.62c-.42,.1-1.66,.42-2.15,.27-4.8-2.51-9.6-5.03-14.41-7.54-.4,.9-.81,1.8-1.21,2.69-.27,.48-.11,.17-.54,.13-.49,.38-.69,1.12-1.21,1.48,.02,.73,.27,1.09,.4,1.62,.09,.35-.1,.8-.13,.94-.19,.81,.4,1.94,.67,2.42,.67,1.16,1.92,1.47,3.1,2.15,.04,.09,.09,.18,.13,.27,.79,.35,1.83,.22,2.56,.67,.16,.1,.37,.44,.54,.54,.35,.22,.74,.18,1.08,.4,.22,.14,.44,.53,.67,.67,.35,.22,.77,.16,1.08,.4,.3,.24,.45,.72,.81,.94,1.07,.67,2.31,.82,3.5,1.35,.41,.18,.95,.65,1.35,.81,.88,.35,1.77,0,2.83,.27,.89,.22,3.31,.87,4.44,.54,.42-.12,.98-.54,1.35-.67h.67c.37-.12,.95-.43,1.35-.54h.94c.73-.22,1.52-.73,2.29-.94h3.1l.4-.27c1.17-.04,2.33-.09,3.5-.13l.54-.27c.31-.05,.5,.24,.94,.13,.7-.17,1.62-.49,2.29-.67h1.88c.18-.05,.63-.35,.81-.4h1.62c1.51,0,2.91,.11,4.17-.27,1.47-.44,3.03-1.18,4.44-1.62,.81-.09,1.62-.18,2.42-.27,.54-.17,1.23-.5,1.88-.67h1.08c1.43-.48,2.36-1.77,3.64-2.15h1.35c2.18-.55,4.65,0,6.73-.54h.94c.96-.28,2.56-.39,3.64-.67h.81c.66-.19,1.58-.49,2.29-.67,.63-.04,1.26-.09,1.88-.13l.27-.27c.85-.18,1.71-.36,2.56-.54,.97-.41,1.87-1.18,2.96-1.48h3.1c.9-.26,2.11-.78,2.96-1.08,1.32-.45,2.29,.22,3.64-.13,.71-.18,1.46-.57,2.02-.81,.69-.3,1.57-.26,2.29-.54,1.23-.48,2.6-1.23,3.77-1.75,.74-.33,1.49-.39,2.15-.81,.5-.31,.94-.93,1.48-1.21,1.09-.58,2.23-.5,3.5-.94,.16-.06,.54-.36,.67-.4h1.35s.64-.26,.67-.27h1.75c.47-.14,1.74-.77,2.42-.54,.31,.1,.45,.45,.54,.81,.11,0,.22,0,.33,0,.07-1.8,.14-3.59,.21-5.39,.06-.09,.26-.5,.27-.54,.17-.54-.19-1.04-.27-1.35Zm-39.58,42.41v-1.08s-2.15-2.15-2.15-2.15c-.41-.15-.68,.24-.94,.13-.45-.18-.53-.89-1.08-1.08-.29,.88-1.12,1.46-1.62,2.15-1.32,1.84-2.75,3.58-4.04,5.39-3.61,5.06-7.36,9.93-11.04,14.94-.73,.99-1.83,1.84-2.56,2.83-5.01,6.8-10.87,12.86-15.89,19.66-.22,.18-.45,.36-.67,.54-.82,1.11-1.61,2.13-2.42,3.23-.22,.18-.45,.36-.67,.54-2.33,3.16-4.94,5.99-7.27,9.15-.73,.99-1.83,1.84-2.56,2.83-.61,.83-1.14,1.59-1.75,2.42-.32,.43-.9,.78-1.21,1.21-.46,.62-.87,1.43-1.48,1.88-4.17,3.07-8.41,5.91-12.66,8.89-.4,.28-.81,.79-1.21,1.08-1.67,1.17-3.31,2.19-4.98,3.37-.97,.68-1.84,1.62-2.96,2.15,.09,1.3,.18,2.6,.27,3.9,.02,.36,.37,.68,.27,.94-.18,.09-.36,.18-.54,.27l-.27,.94c-.14,.69,.44,.63,0,1.21,.07,.43,.12,.39,.27,.67,.8,.04,2.3,.13,2.83,.54h1.88c.28-.13,1.85-2.41,2.15-2.83,.31-.41,.91-.67,1.21-1.08,.83-1.12,1.61-2.13,2.42-3.23,.37-.5,1.06-.75,1.48-1.21,1.01,.16,1.28,.69,2.56,.67,.83-.93,2.38-2.86,3.5-3.37,.92-.41,2.83,.12,3.77-.4,1.11-.62,1.44-2.31,2.69-2.83,1.03-.42,2.36,.08,3.64-.27,.98-.27,2.02-1.02,2.56-1.75,.47-.63,.99-1.04,1.48-1.62,.25-.29,.18-.74,.4-1.08,.31-.22,.63-.45,.94-.67,.18-.23,.17-.51,.4-.67,.18-.04,.36-.09,.54-.13,.91-.61,1.59-1.59,2.29-2.42,.19-.23,.62-.29,.81-.54,.51-.69,.72-1.57,1.21-2.29,.76-.67,1.53-1.35,2.29-2.02,.09-.27,.18-.54,.27-.81,.23-.36,.74-.7,.94-1.08,.18-.34,.07-.64,.27-.94,.63-.58,1.26-1.17,1.88-1.75,.38-.56,.43-1.2,.81-1.75,.33-.48,1-.76,1.35-1.21,.57-.76,1.04-1.51,1.62-2.29,.4-.36,.81-.72,1.21-1.08,.21-.32,.08-.72,.27-1.08,.16-.3,.62-.54,.81-.81,.04-.18,.09-.36,.13-.54,.31-.45,.9-.88,1.21-1.35,.27-.4,.27-.81,.54-1.21,.13-.09,.27-.18,.4-.27,.09-.27,.18-.54,.27-.81,.33-.5,1.01-.86,1.35-1.35,.21-.31,.19-.64,.4-.94,.27-.39,.8-.7,1.08-1.08,.56-.77,1.13-1.63,1.62-2.42,.89-1.44,1.29-3.11,2.15-4.58,.29-.49,.9-.99,1.21-1.48,.27-.43,.27-.91,.54-1.35,.06-.1,.36-.27,.4-.4v-.94c.18-.49,.36-.99,.54-1.48,.37-.55,1.1-1.19,1.62-1.62h.27c.17-.17,.12-.47,.27-.67,.35-.48,.89-.95,1.21-1.48l.13-.67c.11-.18,.37-.13,.54-.27,.03-.02,1.05-1.18,1.08-1.21,.26-.37,.28-.73,.54-1.08,.27-.22,.54-.45,.81-.67,.04-.18,.09-.36,.13-.54,.11-.16,.42-.14,.54-.27,.09-.27,.18-.54,.27-.81,.23-.41,.73-.81,.94-1.21,.18-.34,.06-.65,.27-.94,.54-.78,1.62-1.36,2.15-2.15,.74-1.09,.93-2.51,1.75-3.5,.27-.32,.82-.46,1.08-.81,.27-.38,.28-.81,.54-1.21,.4-.6,.9-1.28,1.35-1.88,.53-.71,1.58-1.08,2.02-1.88,.4-.73,.08-2.34-.27-2.83-.13-.04-.27-.09-.4-.13Z"/>
  <path class="cls-5" d="M226.09,1.09c-1.27,.01-2.38,.23-3.5,.54-.47,.13-1.22-.09-1.48-.13-.48-.08-1,.31-1.35,.4h-1.48c-.78,.22-1.57,.85-2.29,.94-.31,.04-.77-.6-1.21-.54-.62,.08-1.17,.52-1.62,.67-.45-.04-.9-.09-1.35-.13-.81,.27-1.62,.54-2.43,.81-.74,.21-1.88,.02-2.56,.27-.56,.2-1.34,.88-1.89,1.08h-1.21c-.18,.06-.62,.35-.81,.4h-.94c-.12,.04-.42,.36-.54,.4-.67-.04-1.35-.09-2.02-.13-.22,.06-.42,.34-.81,.27-.17-.03-.84-.28-1.21-.13-.24,.1-.74,.45-1.08,.54-.8,.22-1.39,.02-1.89,.13-.45,.11-1.11-.08-1.35-.13h-2.83l-.27,.27c-.81,.04-1.62,.09-2.43,.13-.34,.15-.93,.55-1.35,.67-.83,.25-1.58-.03-2.29,.27-.24,.1-.82,.62-.94,.67-.49-.04-.99-.09-1.48-.13-.43,.14-1.26,.53-1.75,.67-.4-.04-.81-.09-1.21-.13-.38,.08-.87,.44-1.21,.54h-1.35c-.33,.1-.88,.44-1.21,.54-.54,.04-1.08,.09-1.62,.13-.46,.14-1.32,.39-1.75,.67-.13,.18-.27,.36-.4,.54-.54-.04-1.08-.09-1.62-.13-.51,.11-1.48,.45-2.16,.67-.54,.09-1.08,.18-1.62,.27-.51,.2-1.06,.75-1.62,.94-.63,.04-1.26,.09-1.89,.13-.23,.08-.58,.44-.81,.54-.54,.04-1.08,.09-1.62,.13-.73,.25-1.5,.82-2.29,1.08-.69,.22-1.45,.25-2.02,.4h-1.21c-.23,.08-.58,.45-.81,.54-.36,.04-.72,.09-1.08,.13-.75,.28-1.93,.68-2.7,.94-.4,.04-.81,.09-1.21,.13-2.74,.88-6.2,1.25-9.03,2.02-.81,.22-1.27,.04-2.02,.27-6.75,2.06-14.35,3.43-20.62,5.66-.63,.04-1.26,.09-1.89,.13-.16,.05-.54,.36-.67,.4h-1.35c-3.92,1.11-8.42,1.8-12.26,3.1-.89,.3-1.9,.07-2.83,.4-.38,.14-1.09,.53-1.48,.67-1.44,.22-2.87,.45-4.31,.67-.52,.15-1.12,.51-1.62,.67-.67,.09-1.35,.18-2.02,.27-.52,.15-1.23,.39-1.75,.54h-.94c-.3,.09-.81,.45-1.08,.54-.72,.04-1.44,.09-2.16,.13-3.56,1.08-7.43,1.45-10.78,2.56-1.44,.48-2.48-.44-4.18,0-.54,.14-1.57,.28-2.02,.4h-1.48c-.15,.05-.61,.35-.81,.4-.93,.26-4-.17-4.45-.27-1.03-.22-2.07,.26-2.83,.4-.38,.07-2.3-.18-2.7-.27-.68-.16-1.19,.32-1.62,.27-.5-.06-1.03-.53-1.35-.67h-.67c-.79-.25-1.63-.45-2.43-.81-.85-.38-1.51-1.11-2.56-1.35-.56-.13-1,.29-1.35,.4-.59,.2-.98,.11-1.48,.4-.89,.51-2.63,3.44-2.16,5.26,.6,2.3,.97,4.41,2.16,6.06,.52,.72,2.16,1.7,2.96,2.16,.22,.04,.45,.09,.67,.13,.13,.22,.27,.45,.4,.67,.4,.09,.81,.18,1.21,.27,.11,.07,.18,.49,.27,.54,.18-.04,.36-.09,.54-.13,.19,.06,.62,.27,.81,.4,.53,.38,.97,1.09,1.48,1.48,.4,.32,.82,.15,1.35,.4,.04,.09,.09,.18,.13,.27,.4,.24,.72,.28,1.08,.54,.13,.18,.27,.36,.4,.54,.42,.24,1.06,.17,1.48,.4,.27,.15,.54,.66,.81,.81,.4,.09,.81,.18,1.21,.27,.78,.46,1.33,1.79,2.02,2.16,.36,.04,.72,.09,1.08,.13,.15,.07,.39,.46,.54,.54,.87,.45,2-.02,3.1,.27,2,.52,4.36,.64,6.33,.13,.32-.08,.69,.11,.81,.13,.85-.04,1.71-.09,2.56-.13,1-.26,1.99-.55,3.5-.13,.59,.16,1.82,.76,2.56,.54,.59-.17,1.63-.6,2.16-.81,.85-.34,1.22,.17,1.89,0,.23-.06,.74-.34,.94-.4h.81c.37-.13,.92-.55,1.35-.67h2.02c2.15-.6,4.83-.91,6.87-1.48,1.06-.3,1.87,.03,2.83-.27,.96-.3,1.88-.49,2.96-.81,.45-.04,.9-.09,1.35-.13,.53-.22,.96-.97,1.48-1.21h.67c.31-.11,.85-.43,1.21-.54,.49-.04,.99-.09,1.48-.13l.27-.27h1.21c1.15-.31,2.49-.31,3.77-.67,5.42-1.55,11.95-2.1,17.38-3.91h.94c.86-.23,1.76-.24,2.7-.54,3.13-1.01,5.67-2.42,8.49-3.64,.45-.09,.9-.18,1.35-.27,.47-.16,1.14-.52,1.62-.67h.81c.32-.12,.75-.56,1.08-.67,.78-.27,1.67,0,2.43-.27,.12-.04,.42-.36,.54-.4,.45-.04,.9-.09,1.35-.13,.55-.16,1.26-.51,1.75-.67,.54-.09,1.08-.18,1.62-.27,.41-.2,1.06-.65,1.48-.81h.67c.59-.19,1.51-.58,2.16-.67,.17-.02,.22,.21,.54,.13,.92-.23,1.98-.56,2.83-.81,.81-.09,1.62-.18,2.43-.27,.92-.35,1.77-.94,2.56-1.21h1.62c1.75-.49,3.27-.99,4.99-1.48h1.21c.56-.17,1.26-.63,1.75-.81,.54-.04,1.08-.09,1.62-.13,.76-.23,1.78-.59,2.56-.81h1.21c.65-.2,1.22-.73,1.89-.94,.67-.09,1.35-.18,2.02-.27,1.87-.8,4.37-1.18,6.06-2.16-.01-.38-.05-.58-.13-.81-.92,.05-2.67,.82-3.23,.4-.3-.12-.19-.12-.4-.27,.08-.59,.43-.93,.94-1.08,.01-.59,0-.94-.27-1.21-.14-.38-.02-.27-.4-.4-.21-.13-.44-.07-.67,.13-1.19,.03-.57,.13-.94,.81-.11,.19-.41,.31-.54,.54-.45-.24-.24-.58-.54-.94-.31-.13-.63-.27-.94-.4,.11-1.1,.87-.78,1.62-1.21,.1-.06,.28-.35,.4-.4,.67-.13,1.35-.27,2.02-.4,.39-.16,1.04-.58,1.48-.67,.16-.03,.27,.13,.27,.13,.16,0,1.08-.17,1.35-.27,.38-.14,1.09-.54,1.48-.67,.58-.04,1.17-.09,1.75-.13,.2-.09,.47-.55,.67-.67,.31-.09,.63-.18,.94-.27,.57-.34,1.28-.9,1.89-1.21,.27-.04,.54-.09,.81-.13,.1-.05,.33-.37,.4-.4h.94c.53-.18,1.39-.62,1.89-.81,.49-.04,.99-.09,1.48-.13,.27-.08,1.84-.76,2.02-.94,.71-.72-.07-1.86,.4-2.7,.29-.51,.89-1.27,1.48-1.48h.67c.5-.22,1.01-.8,1.48-1.08,.09-.25,0-.12,.13-.27-.05-.61-.13-.49-.4-.81h-.13v-.13c.44-.16,1.28-.57,1.89-.81,.8-.31,1.47-.18,2.16-.54,.49-.26,1.25-.84,1.75-1.08h.54c.23-.1,.58-.44,.81-.54h.54c.17-.08,.46-.46,.67-.54,.31-.04,.63-.09,.94-.13l.27-.4h.54c.09-.13,.18-.27,.27-.4,.27-.04,.54-.09,.81-.13,.49-.28,.69-.96,1.08-1.35,.54-.54,1.38-.64,2.02-1.08,.75-.51,.94-1.37,2.02-1.62-.12-.39-.05-.45,0-.94ZM124.48,69.68c-.22-.34-.19-.99-.4-1.35-.49-.63-.99-1.26-1.48-1.89-.37-.26-.73-.28-1.08-.54-.83-.61-1.74-2.13-2.43-2.96-.2-.24-1.16-.71-1.35-.94v-.4c-.04-.07-.89-1.04-.94-1.08-.67-.48-1.48-.45-2.29-.81-.41-.18-.9-.79-1.21-.94-.72-.04-1.44-.09-2.16-.13-.96-.22-3.89-.53-4.99,.54-.29,.28-1.3,2.4-1.48,2.83v.54c-.13,.09-.27,.18-.4,.27-.29,.42-.38,.78-.67,1.21-.15,.22-.53,.44-.67,.67-.39,.63-.46,1.47-.81,2.16-.08,.16-.44,.39-.54,.54-.51,.82-.58,1.7-1.08,2.56-.14,.23-.54,.4-.67,.67-.42,.89-.45,1.89-.94,2.7l-.27,.13c-.38,.62-.53,1.18-.94,1.75-.22,.18-.45,.36-.67,.54-.04,.18-.09,.36-.13,.54-.25,.35-.85,.55-1.08,.94-.35,.61-.29,1.32-.67,1.89-.18,.13-.36,.27-.54,.4-.25,.35-.29,.73-.54,1.08-.18,.13-.36,.27-.54,.4-.32,.48-.35,1-.67,1.48-.41,.62-1.07,1.26-1.48,1.89-.47,.72-.56,1.63-1.08,2.29-.18,.09-.36,.18-.54,.27-.04,.18-.09,.36-.13,.54-.36,.53-1,1.07-1.35,1.62-.09,.31-.18,.63-.27,.94-.26,.41-.81,.8-1.08,1.21-.42,.64-.51,1.37-.94,2.02-.36,.55-1.12,.83-1.48,1.35-.37,.53-.57,1.1-.94,1.62-.4,.36-.81,.72-1.21,1.08-.48,.67-.71,1.4-1.21,2.02-.13,.04-.27,.09-.4,.13-.29,.3-.3,.71-.54,1.08-.27,.42-.81,.8-1.08,1.21-.39,.59-.5,1.23-.94,1.75h-.27c-.24,.3-.18,.76-.4,1.08-.12,.18-.57,.29-.67,.4-.04,.18-.09,.36-.13,.54-.13,.09-.27,.18-.4,.27-.09,.27-.18,.54-.27,.81-.18,.13-.36,.27-.54,.4-.37,.52-.53,1.14-.94,1.62h-.27s-.25,.37-.27,.4v.27c-.18,.13-.36,.27-.54,.4-.43,.64-.51,1.43-.94,2.02-.06,.08-.88,1.03-.94,1.08-.13,.04-.27,.09-.4,.13-.37,.48-.61,1.35-.94,1.89-.4,.63-1.1,1.25-1.48,1.89v.4c-.18,.13-.36,.27-.54,.4v.4c-.3,.49-1.14,1.12-1.48,1.62-.58,.85-.89,1.86-1.48,2.7-.22,.13-.45,.27-.67,.4-.28,.34-.5,1.08-.81,1.35-.21,.18-.52,.18-.67,.4-.04,.22-.09,.45-.13,.67-.34,.71-1.05,1.55-1.35,2.29v.54c-.22,.52-.79,1.14-1.08,1.62-.13,.4-.27,.81-.4,1.21-.13,.09-.27,.18-.4,.27-.36,.55-.57,1.09-.94,1.62-.18,.13-.36,.27-.54,.4-.04,.22-.09,.45-.13,.67-.12,.23-.55,.46-.67,.67v.4c-.27,.45-.91,.89-1.21,1.35-.09,.27-.18,.54-.27,.81-.18,.13-.36,.27-.54,.4-.27,.81-.54,1.62-.81,2.43-.45,.74-1.32,1.51-1.89,2.16-.04,.18-.09,.36-.13,.54-.36,.56-.68,1.17-1.08,1.75-.18,.13-.36,.27-.54,.4-.8,1.12-1.38,2.23-2.16,3.37-.18,.13-.36,.27-.54,.4-.09,.27-.18,.54-.27,.81-.22,.18-.45,.36-.67,.54-.09,.27-.18,.54-.27,.81h-.27c-.04,.22-.09,.45-.13,.67-.13,.25-.55,.32-.67,.54-.21,.39-.05,.75-.27,1.08-.42,.64-1.44,1.46-1.75,2.16-.26,.57-.2,1.77,.13,2.16,.08,.97,.57,.62,1.08,1.08,.34,.38,.25,1.13-.13,1.48-.04,1.96,.34,1.33,1.08,2.29,.44-.02,.83-.06,1.08-.27,.48-.22,.14-.26,.4-.67,.28-.44,.96-.27,1.21-.54v-.4l.27-.13c.26-.43,.36-1.27,.67-1.62h.27c.45-.49,.9-.99,1.35-1.48,.32-.24,.62-.3,.94-.54,.46-.35,.96-1.39,1.35-1.89,.27-.18,.54-.36,.81-.54,.21-.2,.22-.43,.4-.67,.77-1.04,1.99-1.68,2.7-2.83,.91,.03,.96,.33,1.48,.67,.04,.45,.09,.9,.13,1.35,.32-.02,.38-.01,.54-.13,1.15-.4,1.33-2.32,2.29-2.96,.46-.31,1.35-.53,1.89-.67h1.75c.83-.29,1.37-1.28,2.16-1.62,.54-.04,1.08-.09,1.62-.13,1.06-.27,2.52-.97,3.1-1.75,.82-1.1,1.47-2.27,2.29-3.37,.18-.25,.62-.31,.81-.54,.38-.47,.45-1.13,.81-1.62,.12-.17,.57-.3,.67-.4,.48-.52,.54-1.29,.94-1.89,.27-.22,.54-.45,.81-.67,1.65-2.44,2.74-4.75,5.39-6.2,.25-.65,.37-1.97,.54-2.29,.1-.19,1.06-1.49,1.21-1.62,.22-.18,.51-.18,.67-.4,.19-.27,.09-.51,.27-.81,.4-.36,.81-.72,1.21-1.08,.22-.29,.28-.69,.54-.94,.17-.17,.48-.12,.67-.27,.13-.22,.27-.45,.4-.67,.32-.25,.83-.23,1.08-.54,.26-.31,.56-.95,.67-1.35v-1.21c.17-.35,.9-.37,1.08-.67,.04-.36,.09-.72,.13-1.08,.29-.56,1.19-1.11,1.48-1.62,.27-.47,.24-.81,.54-1.21,.31-.27,.63-.54,.94-.81,.28-.43,.25-.95,.54-1.35,.22-.31,.68-.4,.94-.67,.38-.4,.47-1.04,.94-1.35,.34-.22,.8-.14,1.08-.4,.31-.29,.17-1.13,.54-1.35,.48-.29,.86-.03,1.21-.54,.29-.42,.38-1.57,.67-1.89,.18-.04,.36-.09,.54-.13l.54-.67c.32-.67-.23-1.12,.13-1.75,.9-1.56,2.38-2.84,4.04-3.64,.06-.32,.1-.86,.13-.94,.17-.48,.49-.51,.94-.67,.09-.54,.18-1.08,.27-1.62,.21-.34,.76-.42,.94-.81,.33-.68,.43-1.71,1.08-2.02,.4-.19,.89,.07,1.21-.13,.51-.32,.72-1.12,1.08-1.62,.48-.67,1.28-1.21,1.75-1.89,.31-.44,.37-.89,.67-1.35,.5-.75,1.27-1.51,1.75-2.29,.21-.34,.06-.67,.27-1.08,.21-.4,.84-.71,1.08-1.08,.04-.22,.09-.45,.13-.67,.24-.43,.81-.81,1.08-1.21,.22-.34,.18-.74,.4-1.08,.22-.18,.45-.36,.67-.54,.04-.27,.09-.54,.13-.81,.12-.21,.54-.46,.67-.67,.57-.92,.3-1.76,.67-2.83,.24-.68,.84-.99,1.21-1.48,.22-.29,.19-.63,.4-.94,.27-.22,.54-.45,.81-.67,.04-.18,.09-.36,.13-.54,.1-.11,.56-.23,.67-.4,.29-.45,.19-.98,.54-1.35-.08-1.01-.67-1.14-1.08-1.75Zm-41.91,43.12h-.27v-.27h.27v.27Z"/>
  <path class="cls-2" d="M50.15,213.37h-17.12c-.71,0-1.58-.38-1.25-.88s.92-2,.92-3.25v-23.5c0-.54-.42-1.13-.71-1.42s-.12-.92,.21-.92h15.92c.5,0,.88,.42,.88,.88v2.75c0,.21-.42,.29-.67,.17s-2.25-.79-2.25-.79h-5.12c-.42,0-1.12,.42-1.12,1.04v7.42c0,.46,.62,.96,1.25,.96h3.62c.29,0,1.25-.21,1.29-.04s-.04,2.62-.04,2.92-.46,.29-1,.08-1.29-.54-2.17-.54h-1.67c-.42,0-1.5,.71-1.5,1.5v9.38c0,.92,1.08,1.58,1.83,1.58s3.92,.21,5.25,.12,4.12-.96,4.71-1.21,.75-.25,.67,.17-.79,3.33-1.92,3.58Z"/>
  <path class="cls-2" d="M8.9,213.08h7.25c.58,0,.96-.21,.71-.71s-.92-1.75-.92-2.08v-22.58c0-.71,.67-1.54,1.62-1.54h4.46c.54,0,1.79,.88,2.08,1.04s.54-.38,.71-.83,.67-2,.67-2.33-.21-.71-.92-.71-6.38,.04-11.62,.04-11.67,.12-11.88,.12c0,0-.29,0-.42,.33s-.79,2.83-.62,2.96,1.29-.25,1.96-.46,1.96-.21,2.75-.21h3.25c.58,0,1.29,.88,1.29,1.54v23.29c0,.38-.88,1.42-.88,1.62s.5,.5,.5,.5Z"/>
  <path class="cls-2" d="M253.07,213.08h7.25c.58,0,.96-.21,.71-.71s-.92-1.75-.92-2.08v-22.58c0-.71,.67-1.54,1.62-1.54h4.46c.54,0,1.79,.88,2.08,1.04s.54-.38,.71-.83,.67-2,.67-2.33-.21-.71-.92-.71-6.38,.04-11.62,.04-11.67,.12-11.88,.12c0,0-.29,0-.42,.33s-.79,2.83-.62,2.96,1.29-.25,1.96-.46,1.96-.21,2.75-.21h3.25c.58,0,1.29,.88,1.29,1.54v23.29c0,.38-.88,1.42-.88,1.62s.5,.5,.5,.5Z"/>
  <path class="cls-2" d="M86.32,208.75c-.2-.07-.92,.38-1.62,.83s-4.46,1.42-7.42,1.46c-2.96,.04-12.96-2.71-12.96-12.92s8.33-12.08,11.29-12.33,5.75,.92,6.58,1.25,.92-.21,.92-.67-.12-2.38-.21-2.62-4-.92-7.46-.92-14.1,.73-17.29,9.83c-1.12,3.21-2.87,10.17,4.54,17.21s22.25,2.58,22.25,2.58c0,0,.58-.58,.79-1.21s.75-2.17,.75-2.17c0,0,.08-.25-.17-.33Z"/>
  <path class="cls-2" d="M99.36,212.54s-.71-1.54-.54-2.75,2.17-14.58,2.42-15.5,.54-.88,1-.25,7.29,15.58,7.96,16.67,2.12,2.67,4.33,2.67c.67,0,.67-.58,.67-.71s7.04-16.67,7.71-18.08,1-1,1.29,.83,2.04,14.33,2,15.29-.5,1.75-.21,2,1.08,.46,2,.46h5c.79,0,1.17-.29,.79-1s-.88-1.58-1.04-2.58-3-24.21-3.04-24.5,.58-1.54,.38-1.58-7.54,0-7.96,0-.75,.21-.92,.67c0,0-6.71,16.25-6.88,16.67s-.88,.58-1.29-.17-7.5-17.08-8-17.25-7.96-.17-8.29-.12-.12,.54-.08,.83-3.08,24.25-3.46,25.25-1.42,3-1.29,3.17,1.38,.33,2.75,.33h4.17c.42,0,.75-.21,.54-.33Z"/>
  <path class="cls-2" d="M172.23,191.21c-3.29-6.83-11.25-9.83-18.46-8.71-7.21,1.12-15.04,4.79-15.04,16.08s10.58,15.21,18.46,15.21c0,0,6.71,.21,11-3.5,5.23-4.52,7.33-12.25,4.04-19.08Zm-15.04,19.96c-4.96,.17-10.17-4.75-11.46-12.25-1.29-7.5,5.33-13.58,9.67-13.96,2.04-.18,9.21,1.71,11.25,11,2.04,9.29-4.5,15.04-9.46,15.21Z"/>
  <path class="cls-2" d="M200.11,196.46c-1.38-.62-2-.88-1.96-1.08,.04-.21,3.71-1.88,3.54-5.62s-2.88-6.12-7.88-6.42c-5.11-.3-6.75-.12-9.88-.12s-4.33-.04-4.29,.42c0,0,1,1.21,1,2.29v24.04c0,.88-.58,2-.67,2.21-.08,.21,.12,.79,1.17,.79h6.5c3.54,0,7.08-.04,10.12-.79,3.04-.75,6.88-4.12,7.04-8.71,.17-4.58-3.33-6.38-4.71-7Zm-12.46-9.17c.12-1.17,1.33-1.79,2.17-1.71,.83,.08,4.62,1.25,4.54,5.08-.08,3.83-4.25,4.96-5.04,5.04-.79,.08-1.67-.33-1.67-.96s-.09-6.59,0-7.46Zm2.33,23.42c-1.38-.12-2.33-.58-2.33-1.5s-.1-8.46,0-9.71c.04-.5,.67-1.66,1.79-1.79,2.42-.29,8.38,.96,8.25,6.62-.12,5.48-6.33,6.5-7.71,6.38Z"/>
  <path class="cls-2" d="M241.78,211.79c-.58-.75-1.25-1.5-1.71-2.62s-10.75-24.54-10.75-24.54c0,0-.25-.79-1.29-.79h-6.33c-.71,0-1.08,0-1.17,.33,0,0,.21,1.04,.04,1.96-.17,.92-8.71,23.62-9.29,24.54-.58,.92-1.71,2.46-1.58,2.67,.12,.21,.62,.46,2.79,.46h3.83c.29,0,.29-.62,.17-1s-.08-.79,0-1.04c.08-.25,2.46-7.04,3-8.12,.54-1.08,2.33-1.42,3.96-1.46s5.21,.17,5.79,.17,1.67,1.79,2.58,3.92,2.25,5.04,2.29,5.38c.04,.33-.62,1.54,.08,1.54h7.38c.83,0,.79-.62,.21-1.38Zm-14.88-12.29h-4.38c-.58,0-1.21-.42-.75-1.67,.46-1.25,1.75-4.54,2-5.04s1.08-.88,1.58-.12,2.29,4.83,2.5,5.33c.21,.5-.04,1.5-.96,1.5Z"/>
  <g>
    <path class="cls-1" d="M3.73,238.48v-10.28H7.75c2.64,0,4.25,.88,4.25,3.35,0,1.61-.68,2.54-2.03,3l2.18,3.93h-2.94l-1.99-3.57h-.76v3.57H3.73Zm2.72-5.68h1.19c1.14,0,1.64-.32,1.64-1.18s-.5-1.17-1.64-1.17h-1.19v2.35Z"/>
    <path class="cls-1" d="M19.67,228.2h2.78v3.82h3.42v-3.82h2.78v10.28h-2.78v-4.15h-3.42v4.15h-2.78v-10.28Z"/>
    <path class="cls-1" d="M36.02,233.34c0-3.76,2.57-5.33,5.05-5.33s5.04,1.57,5.04,5.33-2.57,5.33-5.04,5.33-5.05-1.57-5.05-5.33Zm4.14-8.23h1.81l1.79,2.44h-1.54l-1.17-.89-1.14,.89h-1.54l1.79-2.44Zm3.18,8.23c0-1.89-.82-3.04-2.26-3.04s-2.28,1.15-2.28,3.04,.82,3.11,2.28,3.11,2.26-1.22,2.26-3.11Z"/>
    <path class="cls-1" d="M53.5,238.48v-10.28h2.74l3.76,5.76h.03v-5.76h2.54v10.28h-2.57l-3.93-5.75h-.03v5.75h-2.54Z"/>
    <path class="cls-1" d="M70.44,238.48v-10.28h7.33v2.3h-4.55v1.67h3.25v2.17h-3.25v1.9h4.79v2.24h-7.57Z"/>
    <path class="cls-1" d="M94.04,238.48l3.64-10.32h2.58l3.64,10.32h-2.8l-.62-1.92h-3.24l-.67,1.92h-2.53Zm3.85-3.89h1.96l-.94-2.85h-.03l-.99,2.85Z"/>
    <path class="cls-1" d="M110.95,238.48v-10.28h2.78v8.04h4.32v2.24h-7.1Z"/>
    <path class="cls-1" d="M125.16,238.48v-10.28h3.85c2.19,0,4.44,.46,4.44,3.5s-2.43,3.5-4.44,3.5h-1.1v3.28h-2.75Zm2.75-5.39h1.19c1.29,0,1.64-.54,1.64-1.32s-.35-1.32-1.64-1.32h-1.19v2.64Z"/>
    <path class="cls-1" d="M140.7,238.48v-10.28h7.33v2.3h-4.55v1.67h3.25v2.17h-3.25v1.9h4.79v2.24h-7.57Z"/>
    <path class="cls-1" d="M154.88,236.22l2.06-1.28c.61,.99,1.62,1.56,2.69,1.56,.85,0,1.49-.25,1.49-.89s-.82-.9-1.83-1.15c-1.68-.43-3.92-.86-3.92-3.19,0-2.1,1.58-3.25,3.92-3.25,2.18,0,3.49,1.01,4.3,2.01l-1.86,1.53c-.57-.69-1.57-1.29-2.46-1.29-.79,0-1.19,.26-1.19,.75,0,.68,.81,.93,1.82,1.18,1.68,.4,3.93,.92,3.93,3.22,0,1.64-1.15,3.26-4.32,3.26-2.35,0-3.75-1.06-4.62-2.46Z"/>
  </g>
  <rect class="cls-1" x="2.61" y="220.5" width="162.33" height="1.67"/>
</svg>